<svg xmlns="http://www.w3.org/2000/svg" xmlns:xlink="http://www.w3.org/1999/xlink" width="18pt" height="18pt" viewBox="0 0 18 18" version="1.1">
  <path d="M 17.953125 6.554688 C 17.835938 6.1875 17.511719 5.929688 17.128906 5.894531 L 11.933594 5.421875 L 9.878906 0.613281 C 9.726562 0.261719 9.382812 0.0351562 9 0.0351562 C 8.617188 0.0351562 8.273438 0.261719 8.121094 0.617188 L 6.066406 5.421875 L 0.871094 5.894531 C 0.488281 5.929688 0.164062 6.1875 0.046875 6.554688 C -0.0703125 6.917969 0.0390625 7.316406 0.328125 7.570312 L 4.253906 11.011719 L 3.097656 16.113281 C 3.011719 16.488281 3.15625 16.878906 3.46875 17.101562 C 3.636719 17.222656 3.832031 17.285156 4.027344 17.285156 C 4.199219 17.285156 4.367188 17.238281 4.519531 17.148438 L 9 14.46875 L 13.480469 17.148438 C 13.808594 17.34375 14.222656 17.328125 14.53125 17.101562 C 14.84375 16.875 14.988281 16.488281 14.902344 16.113281 L 13.746094 11.011719 L 17.671875 7.570312 C 17.960938 7.316406 18.070312 6.917969 17.953125 6.554688 Z M 17.953125 6.554688 "/>
</svg>