<?xml version="1.0" encoding="utf-8"?><svg xmlns="http://www.w3.org/2000/svg" xmlns:xlink="http://www.w3.org/1999/xlink"><symbol viewBox="0 0 22 9" id="arrow-left" xmlns="http://www.w3.org/2000/svg"><path fill-rule="evenodd" d="M21.704 3.526l.008.003H4.756l.1-2.859a.29.29 0 000-.409L4.684.087a.29.29 0 00-.408 0L.084 4.298a.292.292 0 000 .409L4.276 8.92a.293.293 0 00.408 0l.172-.174a.287.287 0 00.084-.204.278.278 0 00-.084-.2l-.113-2.864h16.965A.3.3 0 0022 5.181V3.812a.293.293 0 00-.296-.286z"/></symbol><symbol viewBox="0 0 22 9" id="arrow-right" xmlns="http://www.w3.org/2000/svg"><path fill-rule="evenodd" d="M.296 5.473l-.008-.002h16.956l-.1 2.858a.289.289 0 00-.084.205c0 .078.029.15.084.205l.172.173a.285.285 0 00.204.084.288.288 0 00.204-.083l4.192-4.212a.29.29 0 000-.408L17.724.08a.288.288 0 00-.204-.083.288.288 0 00-.204.083l-.172.174a.28.28 0 00-.084.204.27.27 0 00.084.199l.113 2.865H.292A.298.298 0 000 3.818v1.37c0 .159.137.285.296.285z"/></symbol><symbol viewBox="0 0 64 64" id="blog-right" xmlns="http://www.w3.org/2000/svg"><path xmlns="http://www.w3.org/2000/svg" d="M37.379 12.552a2 2 0 10-2.758 2.897L49.963 30H10a2 2 0 000 4h39.899L34.621 48.552a2 2 0 102.758 2.896l17.449-16.62C55.584 34.073 56 33.069 56 32s-.416-2.073-1.207-2.862z" data-original="#000000"/></symbol><symbol viewBox="0 0 19 17" id="cart" xmlns="http://www.w3.org/2000/svg"><path fill-rule="evenodd" d="M18.936 3.932l-2.123 7.956a.594.594 0 01-.573.44H5.885a.044.044 0 00-.023 0c-1.329.001-2.205.493-2.68 1.509a.593.593 0 01-1.073-.502c.579-1.239 1.627-1.973 3.054-2.151L4.108 5.793a.592.592 0 111.163-.227l1.091 5.578h9.423l1.807-6.771H4.29A4.354 4.354 0 01.007.68.591.591 0 111.178.505a3.165 3.165 0 003.115 2.682h14.07a.593.593 0 01.573.745zM5.527 12.831h.006A2.065 2.065 0 017.602 14.9a2.066 2.066 0 01-1.277 1.917 2.067 2.067 0 01-2.26-.446 2.066 2.066 0 01-.453-2.26 2.068 2.068 0 011.915-1.28zm-.626 2.702a.89.89 0 10.632-1.518h-.004a.887.887 0 00-.628 1.518zm9.017-2.702c.546-.04 1.08.218 1.468.603.392.393.607.912.607 1.466a2.065 2.065 0 01-1.274 1.917 2.064 2.064 0 01-2.262-.446 2.065 2.065 0 01-.452-2.26 2.064 2.064 0 011.913-1.28zm-.625 2.702a.889.889 0 10.631-1.518h-.001c-.331.032-.685.215-.823.548a.885.885 0 00.193.97z"/></symbol><symbol viewBox="0 0 7 12" id="chevron-right" xmlns="http://www.w3.org/2000/svg"><path fill-rule="evenodd" d="M1.333 11.687a.557.557 0 01-.411-.183.602.602 0 01.022-.831l4.547-4.475L.944 1.724A.602.602 0 01.922.893.552.552 0 011.723.87L6.7 5.768l.014.014a.545.545 0 01.113.169h.001a.611.611 0 01.052.244v.003a.609.609 0 01-.053.249l-.001.001v.002a.594.594 0 01-.111.164l-.015.014-4.977 4.899a.551.551 0 01-.39.16z"/></symbol><symbol viewBox="0 0 18 15" id="commit-textarea" xmlns="http://www.w3.org/2000/svg"><path fill-rule="evenodd" d="M16.714 12.518H5.766L3.303 14.88a.441.441 0 01-.467.089.413.413 0 01-.265-.38v-2.071H1.286C.577 12.518 0 11.965 0 11.285V1.424C0 .744.577.191 1.286.191h15.428C17.423.191 18 .744 18 1.424v9.861c0 .68-.577 1.233-1.286 1.233zm.429-11.094a.42.42 0 00-.429-.411H1.286a.42.42 0 00-.429.411v9.861a.42.42 0 00.429.411H3a.42.42 0 01.428.411v1.49l1.857-1.78a.441.441 0 01.303-.121h11.126a.42.42 0 00.429-.411V1.424zm-4.8 5.547a.63.63 0 01-.643-.616.63.63 0 01.643-.617.63.63 0 01.643.617.63.63 0 01-.643.616zM9 6.971a.63.63 0 01-.643-.616A.63.63 0 019 5.738a.63.63 0 01.643.617.63.63 0 01-.643.616zm-3.586 0a.63.63 0 01-.642-.616.63.63 0 01.642-.617.63.63 0 01.643.617.63.63 0 01-.643.616z"/></symbol><symbol viewBox="0 0 9 16" id="facebook" xmlns="http://www.w3.org/2000/svg"><path d="M6.19.125c.413 0 .828.022 1.24.04.268.011.537.05.789.077L8.2 2.727h-.198c-.272 0-.545-.003-.818-.003a17.9 17.9 0 00-.613.008c-.659.022-1.144.269-1.177 1.092-.021.592-.036 1.901-.037 1.969l1.34.002c.327 0 .647 0 .871-.002h.531c-.133.955-.255 1.87-.388 2.792H5.357l-.053 6.971h-2.89l.053-6.982H.103l.021-2.776h2.375l.002-.208c.004-.559-.003-1.119.018-1.678.008-.351.027-.713.091-1.065.16-.849.554-1.563 1.266-2.073C4.499.33 5.208.143 5.96.127c.076-.002.153-.002.23-.002z"/></symbol><symbol viewBox="0 0 368.167 368.167" id="filter" xmlns="http://www.w3.org/2000/svg"><path d="M248.084 96.684h12c4.4 0 8-3.6 8-8s-3.6-8-8-8h-12c-4.4 0-8 3.6-8 8s3.6 8 8 8z"/><path d="M366.484 25.484c-2.8-5.6-8.4-8.8-14.4-8.8h-336c-6 0-11.6 3.6-14.4 8.8-2.8 5.6-2 12 1.6 16.8l141.2 177.6v115.6c0 6 3.2 11.2 8.4 14 2.4 1.2 4.8 2 7.6 2 3.2 0 6.4-.8 9.2-2.8l44.4-30.8c6.4-4.8 10-12 10-19.6v-78.8l140.8-177.2c3.6-4.8 4.4-11.2 1.6-16.8zm-156.8 186.4c-.8 1.2-1.6 2.8-1.6 4.8v81.2c0 2.8-1.2 5.2-3.2 6.8l-44.4 30.8v-118.8c0-2.8-1.2-5.2-3.2-6.4l-90.4-113.6h145.2c4.4 0 8-3.6 8-8s-3.6-8-8-8h-157.6l-38.4-48h336l-142.4 179.2z"/></symbol><symbol viewBox="0 0 23 15" id="gplus" xmlns="http://www.w3.org/2000/svg"><path fill-rule="evenodd" d="M22.692 5.835l-.001.069-.014 1.816v.076H20.17l-.019 2.431v.069H18.19v-.069l.019-2.431h-2.507l.001-.076.014-1.816v-.069h2.507l.018-2.438.001-.069h1.961l-.001.069-.018 2.438h2.507zm-13.584 8.28a7.735 7.735 0 01-2.357.235c-1.408-.083-2.689-.525-3.823-1.361C1.466 11.912.545 10.475.157 8.701a6.497 6.497 0 01-.136-1.934A7.04 7.04 0 011.64 2.665 7.123 7.123 0 015.505.207 5.758 5.758 0 016.694.021C6.922.013 7.151 0 7.378 0a6.734 6.734 0 013.397.932c.702.401 1.099.808 1.271.932-.716.705-1.405 1.395-2.108 2.086-.522-.45-1.099-.863-2.099-1.016a4.423 4.423 0 00-.613-.044c-2.007 0-3.688 1.451-4.136 3.353a3.945 3.945 0 00-.1 1.298c.153 1.768 1.337 3.218 2.935 3.736.407.128.829.189 1.254.189.099 0 .198-.003.298-.009.753-.049 1.459-.249 2.097-.671 1.076-.732 1.424-1.878 1.426-2.161H7.154l.021-2.77.007-.117h6.754c.363 2.107.037 4.323-1.275 6.056-.907 1.195-2.114 1.948-3.553 2.321z"/></symbol><symbol viewBox="0 0 19 17" id="heart" xmlns="http://www.w3.org/2000/svg"><path fill-rule="evenodd" d="M9.913 16.244a.714.714 0 01-.28-.056C9.28 16.039.983 12.439.983 5.429 1.074 2.779 3.19.721 5.801.721c1.743 0 3.266.918 4.112 2.31a4.796 4.796 0 014.112-2.31c2.609 0 4.725 2.058 4.817 4.684 0 7.034-8.297 10.634-8.649 10.783a.718.718 0 01-.28.056zM5.801 2.106c-1.847 0-3.343 1.47-3.408 3.346 0 5.408 6.125 8.663 7.52 9.335 1.395-.672 7.52-3.93 7.52-9.358-.065-1.853-1.563-3.323-3.408-3.323s-3.342 1.47-3.408 3.346a.698.698 0 01-.704.669.7.7 0 01-.705-.669c-.064-1.876-1.561-3.346-3.407-3.346z"/></symbol><symbol viewBox="0 0 18 13" id="input-email" xmlns="http://www.w3.org/2000/svg"><path fill-rule="evenodd" d="M17.624 12.629l-.001.002-.002.002a1.307 1.307 0 01-.907.361H1.286c-.354 0-.674-.138-.907-.362l-.002-.001-.001-.002A1.21 1.21 0 010 11.757V1.858C0 1.176.577.621 1.286.621h15.428c.709 0 1.286.555 1.286 1.237v9.899c0 .34-.144.648-.376.872zM7.536 6.325l-6.073 5.844h15.074l-6.074-5.844-.726.489c-.22.149-.479.223-.737.223-.259 0-.517-.074-.737-.223l-.727-.489zM.863 1.83c-.001.01-.006.018-.006.028v9.728l5.966-5.742L.863 1.83zm.925-.384l6.966 4.692a.445.445 0 00.492 0l6.965-4.692H1.788zm15.355.412c0-.01-.006-.018-.006-.028l-5.96 4.014 5.966 5.742V1.858z"/></symbol><symbol viewBox="0 0 14 14" id="input-name" xmlns="http://www.w3.org/2000/svg"><path fill-rule="evenodd" d="M13.81 12.755a.42.42 0 01-.428.411H.549a.42.42 0 01-.428-.411c0-2.99 2.097-5.491 4.941-6.29C4.027 5.848 3.33 4.754 3.33 3.499 3.33 1.571 4.961.003 6.966.003c2.004 0 3.636 1.568 3.636 3.496 0 1.255-.697 2.349-1.733 2.966 2.844.799 4.941 3.3 4.941 6.29zM9.746 3.499c0-1.474-1.247-2.673-2.78-2.673-1.533 0-2.781 1.199-2.781 2.673 0 1.475 1.248 2.674 2.781 2.674 1.533 0 2.78-1.199 2.78-2.674zm-2.78 3.497c-3.159 0-5.754 2.363-5.974 5.347h11.947c-.22-2.984-2.815-5.347-5.973-5.347z"/></symbol><symbol viewBox="0 0 18 18" id="insta" xmlns="http://www.w3.org/2000/svg"><path fill-rule="evenodd" d="M16.908 13.563c-.533 1.96-1.813 3.12-3.797 3.439-.742.119-2.744.191-4.744.191-2.047 0-4.092-.075-4.779-.254-1.95-.504-3.114-1.774-3.424-3.749-.23-1.451-.255-8.191.164-9.654C.874 1.63 2.146.51 4.075.193c.874-.143 2.584-.194 4.31-.194 1.605 0 3.224.044 4.198.098 1.181.062 2.262.442 3.14 1.284.836.801 1.264 1.802 1.372 2.935.128 1.353.211 7.748-.187 9.247zm-1.36-9.102c-.155-1.513-1.08-2.507-2.576-2.742-.741-.112-2.525-.162-4.3-.162-1.712 0-3.417.047-4.166.128-1.5.172-2.509 1.098-2.748 2.59-.247 1.58-.243 7.492-.059 8.68.191 1.236.889 2.085 2.123 2.43.667.188 2.665.254 4.624.254 1.804 0 3.575-.056 4.241-.129 1.514-.166 2.515-1.098 2.754-2.603.247-1.513.248-7.03.107-8.446zm-2.339.594a1.033 1.033 0 01.01-2.065h.013c.566 0 1.025.463 1.021 1.036a1.044 1.044 0 01-1.044 1.029zM8.563 13.01A4.367 4.367 0 014.19 8.597a4.444 4.444 0 014.447-4.406 4.37 4.37 0 014.372 4.413 4.451 4.451 0 01-4.446 4.406zm.083-7.265H8.62A2.879 2.879 0 005.745 8.57a2.826 2.826 0 002.802 2.879h.026a2.88 2.88 0 002.876-2.824 2.824 2.824 0 00-2.803-2.88z"/></symbol><symbol viewBox="0 0 37 33.968" id="letter" xmlns="http://www.w3.org/2000/svg"><path d="M.975 33.98a.957.957 0 01-.669-.272.922.922 0 01-.278-.659L0 12.848v-.017a.927.927 0 01.408-.754L5.73 8.461V4.623a.94.94 0 01.948-.932h6.067L17.962.145a.961.961 0 011.079 0l5.185 3.545h6.093a.94.94 0 01.947.932v3.882l5.3 3.621a.933.933 0 01.373.519.528.528 0 01.034.184L37 32.999a.941.941 0 01-.946.933L.977 33.98zm2.773-1.867l29.478-.041-14.712-11.224zm-1.828-.965l11.443-8.73L1.9 14.625zM23.64 22.4l11.461 8.744-.023-16.565zM7.626 16.252l7.308 4.968 3-2.288a.959.959 0 011.148-.008l.013.008 2.977 2.272 7.3-4.993V5.555H7.626v10.7zm-5.013-3.408l3.118 2.121v-4.241zm28.654 2.072l3.028-2.071-3.028-2.07v4.141zM16.079 3.691h4.828L18.5 2.046zm-3.994 12.3a.933.933 0 110-1.865h12.83a.933.933 0 110 1.865h-12.83zm0-4.847a.932.932 0 110-1.864h12.83a.932.932 0 110 1.864h-12.83z" fill-rule="evenodd"/></symbol><symbol viewBox="0 0 31 44" id="location" xmlns="http://www.w3.org/2000/svg"><path d="M14.6 43.809l-6.584-2.917-5.674 2.51a1.651 1.651 0 01-1.864-.355 1.634 1.634 0 01-.313-1.862l4.994-10.516a1.103 1.103 0 111.972.987L2.788 40.8l4.32-1.914a2.227 2.227 0 011.806 0l6.583 2.916h.011l6.585-2.917a2.223 2.223 0 011.8 0l4.32 1.914-4.342-9.145a1.093 1.093 0 01.174-1.275 1.107 1.107 0 011.8.288l4.994 10.518a1.656 1.656 0 01-2.176 2.216L23 40.892l-6.594 2.917a2.23 2.23 0 01-1.806 0zm-1.947-7.6L3.1 20.283c-.011-.02-.023-.041-.033-.062a13.944 13.944 0 1126.39-6.327 13.691 13.691 0 01-1.528 6.327l-.034.062-9.548 15.927a3.326 3.326 0 01-5.697 0zm2.683-34.012A11.783 11.783 0 003.75 13.822a11.521 11.521 0 001.269 5.366l9.529 15.9a1.114 1.114 0 001.91 0l9.528-15.9a11.665 11.665 0 00-2.231-13.625 11.7 11.7 0 00-8.247-3.368zm-4.884 11.7a5.051 5.051 0 115.051 5.027 5.044 5.044 0 01-5.054-5.03zm2.206 0a2.845 2.845 0 102.845-2.83 2.842 2.842 0 00-2.848 2.827z" fill-rule="evenodd"/></symbol><symbol viewBox="0 0 21 21" id="menu" xmlns="http://www.w3.org/2000/svg"><path fill-rule="evenodd" d="M17.883 12.75a2.145 2.145 0 01-2.146-2.147c0-1.186.959-2.145 2.146-2.145 1.187 0 2.146.959 2.146 2.145a2.145 2.145 0 01-2.146 2.147zm0-7.869a2.144 2.144 0 01-2.146-2.146c0-1.187.959-2.146 2.146-2.146 1.187 0 2.146.959 2.146 2.146a2.144 2.144 0 01-2.146 2.146zm-7.869 15.737a2.144 2.144 0 01-2.146-2.146c0-1.187.96-2.146 2.146-2.146 1.187 0 2.146.959 2.146 2.146a2.144 2.144 0 01-2.146 2.146zm0-7.868a2.145 2.145 0 110-4.292c1.187 0 2.146.959 2.146 2.145a2.145 2.145 0 01-2.146 2.147zm0-7.869a2.145 2.145 0 110-4.292c1.187 0 2.146.959 2.146 2.146a2.144 2.144 0 01-2.146 2.146zM2.146 20.618A2.144 2.144 0 010 18.472c0-1.187.959-2.146 2.146-2.146 1.187 0 2.146.959 2.146 2.146a2.144 2.144 0 01-2.146 2.146zm0-7.868A2.145 2.145 0 010 10.603c0-1.186.959-2.145 2.146-2.145 1.187 0 2.146.959 2.146 2.145a2.145 2.145 0 01-2.146 2.147zm0-7.869A2.144 2.144 0 010 2.735C0 1.548.959.589 2.146.589c1.187 0 2.146.959 2.146 2.146a2.144 2.144 0 01-2.146 2.146zm15.737 11.445c1.187 0 2.146.959 2.146 2.146a2.144 2.144 0 01-2.146 2.146 2.144 2.144 0 01-2.146-2.146c0-1.187.959-2.146 2.146-2.146z"/></symbol><symbol viewBox="0 0 37 44" id="our-phone" xmlns="http://www.w3.org/2000/svg"><path d="M13.44 39.016a5.06 5.06 0 115.06 5 5.034 5.034 0 01-5.06-5zm1.97 0a3.085 3.085 0 103.09-3.045 3.074 3.074 0 00-3.09 3.045zM26.88 27.68a5.06 5.06 0 115.06 5 5.033 5.033 0 01-5.06-5zm1.98 0a3.085 3.085 0 103.08-3.046 3.066 3.066 0 00-3.08 3.046zm-15.42 0a5.06 5.06 0 115.06 5 5.033 5.033 0 01-5.06-5zm1.97 0a3.085 3.085 0 103.09-3.046 3.075 3.075 0 00-3.09 3.046zM0 27.68a5.06 5.06 0 115.06 5 5.033 5.033 0 01-5.06-5zm1.97 0a3.085 3.085 0 103.09-3.046 3.075 3.075 0 00-3.09 3.046zm24.91-11.337a5.06 5.06 0 115.06 5 5.034 5.034 0 01-5.06-5zm1.98 0a3.085 3.085 0 103.08-3.045 3.064 3.064 0 00-3.08 3.045zm-15.42 0a5.06 5.06 0 115.06 5 5.034 5.034 0 01-5.06-5zm1.97 0a3.085 3.085 0 103.09-3.045 3.073 3.073 0 00-3.09 3.045zm-15.41 0a5.06 5.06 0 115.06 5 5.034 5.034 0 01-5.06-5zm1.97 0a3.085 3.085 0 103.09-3.045 3.073 3.073 0 00-3.09 3.045zM26.88 5.007a5.06 5.06 0 115.06 5 5.033 5.033 0 01-5.06-5zm1.98 0a3.085 3.085 0 103.08-3.046 3.066 3.066 0 00-3.08 3.046zm-15.42 0a5.06 5.06 0 115.06 5 5.033 5.033 0 01-5.06-5zm1.97 0a3.085 3.085 0 103.09-3.046 3.075 3.075 0 00-3.09 3.046zM0 5.007a5.06 5.06 0 115.06 5 5.033 5.033 0 01-5.06-5zm1.97 0a3.085 3.085 0 103.09-3.046 3.075 3.075 0 00-3.09 3.046z" fill-rule="evenodd"/></symbol><symbol viewBox="0 0 22 25" id="play" xmlns="http://www.w3.org/2000/svg"><path fill-rule="evenodd" d="M20.684 14.74L4.64 24.536a3.236 3.236 0 01-3.062.144c-.972-.47-1.579-1.387-1.579-2.385V2.7c0-.999.607-1.917 1.579-2.386A3.24 3.24 0 014.64.457l16.044 9.798c.822.502 1.315 1.343 1.315 2.241 0 .9-.493 1.741-1.315 2.244z"/></symbol><symbol viewBox="0 0 22 20" id="product-cart" xmlns="http://www.w3.org/2000/svg"><path d="M21.934 5.216l-3.717 8.56a.813.813 0 01-.746.488H7.257a.814.814 0 01-.787-.597L3.147 1.629H.814A.817.817 0 010 .814c0-.449.366-.816.814-.816h2.943c.367 0 .692.245.787.598l3.323 12.038h9.062l3.011-6.929H9.902a.816.816 0 010-1.631h11.286c.271 0 .529.137.678.366a.829.829 0 01.068.776zM6.484 16.303a1.848 1.848 0 010 3.696 1.849 1.849 0 010-3.696zm11.408 0a1.85 1.85 0 011.519 3.057c-.326.38-.773.598-1.262.639h-.135a1.85 1.85 0 01-1.831-1.726 1.849 1.849 0 011.709-1.97z"/></symbol><symbol viewBox="0 0 22 18" id="product-heart" xmlns="http://www.w3.org/2000/svg"><path d="M21.99 5.82a6.212 6.212 0 00-1.849-4.1C19.016.61 17.545-.001 16.002-.001c-2.311 0-3.948 1.785-4.827 2.745l-.156.169-.083-.094c-.804-.916-2.476-2.82-4.938-2.82-1.543 0-3.013.611-4.139 1.721A6.212 6.212 0 00.01 5.82c-.082 1.541.31 2.88 1.271 4.338.861 1.308 3.104 3.374 4.763 4.748 1.705 1.411 3.95 3.093 4.965 3.093 1.032 0 3.269-1.68 4.965-3.087 1.646-1.367 3.876-3.432 4.746-4.754.646-.984 1.375-2.366 1.27-4.338zm-2.376 3.61c-.632.961-2.412 2.736-4.431 4.418-2.406 2.004-3.831 2.795-4.172 2.826-.342-.035-1.77-.833-4.188-2.843-2.03-1.686-3.813-3.454-4.437-4.402-.795-1.206-1.12-2.297-1.054-3.538.135-2.519 2.228-4.569 4.666-4.569 1.863 0 3.216 1.542 3.943 2.37.428.488.663.755 1.059.755.409 0 .672-.286 1.151-.809.794-.866 2.122-2.316 3.851-2.316 2.438 0 4.531 2.05 4.666 4.569.067 1.254-.248 2.313-1.054 3.539z"/></symbol><symbol viewBox="0 0 20 20" id="product-search" xmlns="http://www.w3.org/2000/svg"><path d="M19.45 19.448a1.873 1.873 0 01-2.651 0l-4.588-4.588a8.819 8.819 0 002.651-2.651l4.588 4.589c.733.732.733 1.92 0 2.65zM7.5 14.999A7.5 7.5 0 117.502-.003 7.5 7.5 0 017.5 15zm0-13.126a5.632 5.632 0 00-5.625 5.626A5.63 5.63 0 007.5 13.123a5.63 5.63 0 005.625-5.624A5.632 5.632 0 007.5 1.873zM4.375 7.499h-1.25A4.381 4.381 0 017.5 3.123v1.251a3.129 3.129 0 00-3.125 3.125z"/></symbol><symbol viewBox="0 0 16 16" id="search" xmlns="http://www.w3.org/2000/svg"><path fill-rule="evenodd" d="M15.321 14.61c-.422.454-1.994 1.415-3.731-.292l-2.058-2.35a6.283 6.283 0 01-2.549.539C3.515 12.507.705 9.705.705 6.25c0-3.456 2.807-6.254 6.275-6.254 3.465 0 6.279 2.801 6.279 6.257 0 .929-.203 1.812-.568 2.604l2.336 2.036c1.703 1.747.746 3.266.294 3.717zM6.98 1.305c-2.742 0-4.965 2.216-4.965 4.948s2.22 4.948 4.965 4.948c2.742 0 4.966-2.216 4.966-4.948S9.722 1.305 6.98 1.305zm7.199 10.561l-2.162-1.88a6.254 6.254 0 01-1.363 1.34l1.872 2.187c.293.324 1.126.867 1.881.226.209-.176.633-1.068-.228-1.873zm-7.685-1.781a4.205 4.205 0 01-2.143-1.131 4.172 4.172 0 01-1.136-2.136c-.065-.354.128-.676.487-.742.356-.065.68.131.746.484.096.582.355 1.067.779 1.489.421.389.942.678 1.494.777.325.066.552.39.487.743a.644.644 0 01-.714.516z"/></symbol><symbol viewBox="0 0 18 18" id="search-blog" xmlns="http://www.w3.org/2000/svg"><path fill-rule="evenodd" d="M17.249 17.92a.592.592 0 01-.419-.174l-5.299-5.298a6.502 6.502 0 01-4.178 1.514A6.539 6.539 0 01.822 7.431 6.539 6.539 0 017.353.899a6.538 6.538 0 016.531 6.532 6.505 6.505 0 01-1.513 4.178l5.298 5.298a.592.592 0 01-.42 1.013zM7.353 2.087A5.35 5.35 0 002.01 7.431a5.35 5.35 0 005.343 5.344 5.351 5.351 0 005.345-5.344 5.35 5.35 0 00-5.345-5.344z"/></symbol><symbol viewBox="0 0 18 18" id="star" xmlns="http://www.w3.org/2000/svg"><path d="M17.953 6.555a.954.954 0 00-.824-.66l-5.195-.473L9.879.613A.956.956 0 008.12.617L6.066 5.422l-5.195.473A.959.959 0 00.328 7.57l3.926 3.44-1.156 5.102a.95.95 0 00.37.989.956.956 0 00.56.183c.171 0 .34-.047.492-.137L9 14.468l4.48 2.68a.952.952 0 001.051-.046.953.953 0 00.371-.989l-1.156-5.101 3.926-3.442a.959.959 0 00.281-1.015zm0 0"/></symbol><symbol viewBox="0 0 15 13" id="twitter" xmlns="http://www.w3.org/2000/svg"><path fill-rule="evenodd" d="M14.69 2.277c-.105.159-.21.307-.332.45-.311.384-.67.724-1.072 1.015l-.05.093c.013.433-.007.867-.065 1.3a8.702 8.702 0 01-2.374 4.92 7.904 7.904 0 01-4.049 2.249 9.057 9.057 0 01-1.636.192c-.089.002-.177.004-.265.004a8.219 8.219 0 01-4.416-1.266l-.07-.043c.232.024.461.037.689.037a5.95 5.95 0 002.248-.438 5.825 5.825 0 001.4-.817c-1.519-.049-2.465-1.147-2.711-2.035.182.035.364.052.545.052a3.1 3.1 0 00.712-.085l.044-.022c-.827-.192-1.46-.631-1.894-1.344a2.859 2.859 0 01-.421-1.558c.415.22.842.34 1.303.351-.617-.444-1.029-1.031-1.193-1.777a2.881 2.881 0 01.334-2.123c1.571 1.871 3.571 2.897 6.021 3.066-.015-.12-.031-.219-.047-.323a2.845 2.845 0 01.448-1.914C8.311 1.526 8.978 1.07 9.835.933c.182-.03.36-.045.533-.045.768 0 1.446.294 2.028.863.036.032.067.05.108.05a5.795 5.795 0 001.756-.659l.038-.022c-.213.68-.64 1.206-1.246 1.596a5.654 5.654 0 001.638-.439z"/></symbol></svg>